<?xml version="1.0" standalone="no"?>
<!DOCTYPE svg PUBLIC "-//W3C//DTD SVG 20010904//EN"
 "http://www.w3.org/TR/2001/REC-SVG-20010904/DTD/svg10.dtd">
<svg version="1.0" xmlns="http://www.w3.org/2000/svg"
 width="64.000000pt" height="64.000000pt" viewBox="0 0 64.000000 64.000000"
 preserveAspectRatio="xMidYMid meet">

<g transform="translate(0.000000,64.000000) scale(0.100000,-0.100000)"
fill="#000000" stroke="none">
<path d="M245 631 c-237 -64 -322 -364 -151 -534 20 -20 62 -49 94 -64 48 -24
69 -28 137 -28 78 1 133 18 150 45 4 6 -24 63 -61 128 -37 64 -69 120 -71 125
-2 4 18 7 46 7 l50 0 3 -37 c2 -31 7 -39 26 -41 17 -3 25 2 29 17 8 32 23 14
23 -29 0 -42 9 -54 34 -44 12 5 16 21 16 69 l0 64 33 3 c40 4 45 26 23 101
-36 122 -154 214 -284 222 -37 2 -80 1 -97 -4z m163 -26 c36 -11 50 -20 46
-29 -5 -12 -11 -12 -41 1 -47 19 -126 19 -181 0 -40 -14 -43 -14 -40 1 4 19
70 40 129 41 19 1 58 -6 87 -14z m-238 -45 c0 -6 -16 -24 -35 -41 -38 -34 -85
-124 -85 -163 0 -17 -6 -26 -15 -26 -38 0 16 141 77 202 38 38 58 47 58 28z
m223 -1 c35 -10 48 -31 27 -44 -6 -4 -10 -3 -9 2 4 24 -3 34 -23 31 -31 -4
-31 -40 -1 -48 21 -5 21 -7 -20 -77 -22 -40 -44 -73 -47 -73 -3 0 -14 16 -24
35 -18 34 -36 46 -36 25 0 -5 -9 -1 -20 10 -24 24 -38 25 -62 3 -22 -20 -23
-41 -1 -65 22 -25 40 -23 68 8 l24 26 16 -31 16 -31 -116 0 c-106 0 -115 1
-115 19 0 46 61 150 100 171 16 8 21 6 31 -12 11 -20 10 -21 -3 -10 -20 16
-48 5 -48 -19 0 -26 28 -35 47 -16 14 14 18 14 34 -6 26 -31 24 -4 -3 45 -19
33 -20 40 -8 48 8 6 22 10 30 10 11 0 11 -3 2 -12 -28 -28 -7 -78 34 -78 48 0
59 64 14 87 -24 12 -24 13 15 13 22 0 57 -5 78 -11z m173 -69 c24 -36 54 -118
54 -147 0 -7 -7 -13 -15 -13 -8 0 -15 9 -15 20 0 47 -28 106 -72 155 -26 29
-45 55 -41 58 10 10 63 -33 89 -73z m-52 -13 c43 -57 71 -147 46 -147 -6 0
-11 -32 -11 -72 -1 -40 -4 -59 -6 -43 -7 61 -13 75 -33 75 -10 0 -22 -9 -25
-20 -10 -30 -25 -24 -25 10 0 28 2 30 40 30 22 0 40 4 40 10 0 5 -44 11 -99
12 l-100 3 56 97 c61 108 67 111 117 45z m-464 -193 c0 -39 47 -129 85 -163
34 -30 45 -51 25 -51 -19 0 -86 76 -107 120 -30 65 -38 120 -18 120 9 0 15 -9
15 -26z m150 11 c-17 -20 -5 -45 20 -45 25 0 37 25 20 45 -11 13 -7 15 25 15
l36 0 -32 -57 c-41 -74 -44 -78 -46 -51 -2 21 -27 48 -44 48 -4 0 -17 -8 -29
-18 -18 -14 -21 -25 -16 -45 8 -32 48 -46 73 -26 15 13 15 11 -1 -19 -14 -27
-20 -31 -36 -22 -39 21 -100 125 -100 171 0 17 8 19 71 19 62 0 70 -2 59 -15z
m136 -22 c60 -100 74 -131 56 -126 -10 2 -24 -3 -32 -12 -11 -14 -11 -19 4
-33 16 -16 18 -16 37 7 17 20 20 21 25 6 4 -10 1 -21 -7 -26 -16 -10 -108 -22
-129 -17 -27 6 -25 -15 2 -23 28 -7 107 4 137 21 14 7 20 6 25 -5 8 -23 -94
-49 -160 -41 -69 8 -104 22 -104 41 0 13 4 14 21 5 27 -15 40 -2 15 15 -10 8
-16 18 -15 22 11 27 104 183 108 183 4 0 11 -8 17 -17z"/>
<path d="M296 433 c-4 -9 0 -23 9 -32 13 -14 17 -14 31 1 9 9 14 24 11 32 -8
21 -43 20 -51 -1z"/>
<path d="M87 377 c-8 -21 8 -39 29 -35 27 5 25 42 -2 46 -12 2 -24 -3 -27 -11z"/>
<path d="M447 493 c-13 -12 -7 -44 9 -50 23 -9 48 25 33 44 -12 14 -32 17 -42
6z"/>
<path d="M458 405 c-9 -21 -8 -28 7 -45 10 -11 26 -20 35 -20 9 0 25 9 35 20
27 30 7 70 -35 70 -23 0 -33 -6 -42 -25z"/>
<path d="M384 385 c-8 -19 3 -35 26 -35 19 0 30 17 23 38 -6 17 -42 15 -49 -3z"/>
<path d="M94 275 c-4 -9 -2 -21 4 -27 16 -16 47 -5 47 17 0 26 -42 34 -51 10z"/>
<path d="M307 247 c-22 -16 -13 -47 14 -47 25 0 36 28 17 46 -11 12 -17 12
-31 1z"/>
<path d="M268 179 c-28 -16 -23 -67 7 -81 21 -9 28 -8 45 7 25 23 26 47 2 68
-21 19 -30 20 -54 6z"/>
</g>
</svg>
